<svg xmlns="http://www.w3.org/2000/svg" version="1.1" xmlns:xlink="http://www.w3.org/1999/xlink" xmlns:svgjs="http://svgjs.com/svgjs" width="500" height="700" preserveAspectRatio="none" viewBox="0 0 500 700"><g mask="url(&quot;#SvgjsMask1595&quot;)" fill="none"><rect width="500" height="700" x="0" y="0" fill="rgba(109, 33, 209, 1)"></rect><use xlink:href="#SvgjsPath1596" x="30" y="30" stroke="rgba(148, 100, 207, 1)"></use><use xlink:href="#SvgjsPath1597" x="30" y="90" stroke="rgba(148, 100, 207, 1)"></use><use xlink:href="#SvgjsPath1598" x="30" y="150" stroke="rgba(148, 100, 207, 1)"></use><use xlink:href="#SvgjsPath1598" x="30" y="210" stroke="rgba(148, 100, 207, 1)"></use><use xlink:href="#SvgjsPath1599" x="30" y="270" stroke="rgba(148, 100, 207, 1)"></use><use xlink:href="#SvgjsPath1600" x="30" y="330" stroke="rgba(148, 100, 207, 1)" stroke-width="3"></use><use xlink:href="#SvgjsPath1601" x="30" y="390" stroke="rgba(148, 100, 207, 1)"></use><use xlink:href="#SvgjsPath1598" x="30" y="450" stroke="rgba(148, 100, 207, 1)"></use><use xlink:href="#SvgjsPath1598" x="30" y="510" stroke="rgba(148, 100, 207, 1)"></use><use xlink:href="#SvgjsPath1601" x="30" y="570" stroke="rgba(148, 100, 207, 1)"></use><use xlink:href="#SvgjsPath1598" x="30" y="630" stroke="rgba(148, 100, 207, 1)"></use><use xlink:href="#SvgjsPath1601" x="30" y="690" stroke="rgba(148, 100, 207, 1)"></use><use xlink:href="#SvgjsPath1600" x="90" y="30" stroke="rgba(148, 100, 207, 1)" stroke-width="3"></use><use xlink:href="#SvgjsPath1597" x="90" y="90" stroke="rgba(148, 100, 207, 1)"></use><use xlink:href="#SvgjsPath1601" x="90" y="150" stroke="rgba(148, 100, 207, 1)"></use><use xlink:href="#SvgjsPath1598" x="90" y="210" stroke="rgba(148, 100, 207, 1)"></use><use xlink:href="#SvgjsPath1597" x="90" y="270" stroke="rgba(148, 100, 207, 1)"></use><use xlink:href="#SvgjsPath1601" x="90" y="330" stroke="rgba(148, 100, 207, 1)"></use><use xlink:href="#SvgjsPath1601" x="90" y="390" stroke="rgba(148, 100, 207, 1)"></use><use xlink:href="#SvgjsPath1597" x="90" y="450" stroke="rgba(148, 100, 207, 1)"></use><use xlink:href="#SvgjsPath1601" x="90" y="510" stroke="rgba(148, 100, 207, 1)"></use><use xlink:href="#SvgjsPath1599" x="90" y="570" stroke="rgba(148, 100, 207, 1)"></use><use xlink:href="#SvgjsPath1597" x="90" y="630" stroke="rgba(148, 100, 207, 1)"></use><use xlink:href="#SvgjsPath1598" x="90" y="690" stroke="rgba(148, 100, 207, 1)"></use><use xlink:href="#SvgjsPath1597" x="150" y="30" stroke="rgba(148, 100, 207, 1)"></use><use xlink:href="#SvgjsPath1597" x="150" y="90" stroke="rgba(148, 100, 207, 1)"></use><use xlink:href="#SvgjsPath1598" x="150" y="150" stroke="rgba(148, 100, 207, 1)"></use><use xlink:href="#SvgjsPath1601" x="150" y="210" stroke="rgba(148, 100, 207, 1)"></use><use xlink:href="#SvgjsPath1601" x="150" y="270" stroke="rgba(148, 100, 207, 1)"></use><use xlink:href="#SvgjsPath1596" x="150" y="330" stroke="rgba(148, 100, 207, 1)"></use><use xlink:href="#SvgjsPath1598" x="150" y="390" stroke="rgba(148, 100, 207, 1)"></use><use xlink:href="#SvgjsPath1598" x="150" y="450" stroke="rgba(148, 100, 207, 1)"></use><use xlink:href="#SvgjsPath1599" x="150" y="510" stroke="rgba(148, 100, 207, 1)"></use><use xlink:href="#SvgjsPath1598" x="150" y="570" stroke="rgba(148, 100, 207, 1)"></use><use xlink:href="#SvgjsPath1599" x="150" y="630" stroke="rgba(148, 100, 207, 1)"></use><use xlink:href="#SvgjsPath1601" x="150" y="690" stroke="rgba(148, 100, 207, 1)"></use><use xlink:href="#SvgjsPath1597" x="210" y="30" stroke="rgba(148, 100, 207, 1)"></use><use xlink:href="#SvgjsPath1601" x="210" y="90" stroke="rgba(148, 100, 207, 1)"></use><use xlink:href="#SvgjsPath1596" x="210" y="150" stroke="rgba(148, 100, 207, 1)"></use><use xlink:href="#SvgjsPath1596" x="210" y="210" stroke="rgba(148, 100, 207, 1)"></use><use xlink:href="#SvgjsPath1598" x="210" y="270" stroke="rgba(148, 100, 207, 1)"></use><use xlink:href="#SvgjsPath1599" x="210" y="330" stroke="rgba(148, 100, 207, 1)"></use><use xlink:href="#SvgjsPath1597" x="210" y="390" stroke="rgba(148, 100, 207, 1)"></use><use xlink:href="#SvgjsPath1599" x="210" y="450" stroke="rgba(148, 100, 207, 1)"></use><use xlink:href="#SvgjsPath1597" x="210" y="510" stroke="rgba(148, 100, 207, 1)"></use><use xlink:href="#SvgjsPath1597" x="210" y="570" stroke="rgba(148, 100, 207, 1)"></use><use xlink:href="#SvgjsPath1601" x="210" y="630" stroke="rgba(148, 100, 207, 1)"></use><use xlink:href="#SvgjsPath1597" x="210" y="690" stroke="rgba(148, 100, 207, 1)"></use><use xlink:href="#SvgjsPath1598" x="270" y="30" stroke="rgba(148, 100, 207, 1)"></use><use xlink:href="#SvgjsPath1601" x="270" y="90" stroke="rgba(148, 100, 207, 1)"></use><use xlink:href="#SvgjsPath1598" x="270" y="150" stroke="rgba(148, 100, 207, 1)"></use><use xlink:href="#SvgjsPath1598" x="270" y="210" stroke="rgba(148, 100, 207, 1)"></use><use xlink:href="#SvgjsPath1598" x="270" y="270" stroke="rgba(148, 100, 207, 1)"></use><use xlink:href="#SvgjsPath1598" x="270" y="330" stroke="rgba(148, 100, 207, 1)"></use><use xlink:href="#SvgjsPath1597" x="270" y="390" stroke="rgba(148, 100, 207, 1)"></use><use xlink:href="#SvgjsPath1600" x="270" y="450" stroke="rgba(148, 100, 207, 1)" stroke-width="3"></use><use xlink:href="#SvgjsPath1601" x="270" y="510" stroke="rgba(148, 100, 207, 1)"></use><use xlink:href="#SvgjsPath1596" x="270" y="570" stroke="rgba(148, 100, 207, 1)"></use><use xlink:href="#SvgjsPath1599" x="270" y="630" stroke="rgba(148, 100, 207, 1)"></use><use xlink:href="#SvgjsPath1596" x="270" y="690" stroke="rgba(148, 100, 207, 1)"></use><use xlink:href="#SvgjsPath1598" x="330" y="30" stroke="rgba(148, 100, 207, 1)"></use><use xlink:href="#SvgjsPath1599" x="330" y="90" stroke="rgba(148, 100, 207, 1)"></use><use xlink:href="#SvgjsPath1599" x="330" y="150" stroke="rgba(148, 100, 207, 1)"></use><use xlink:href="#SvgjsPath1598" x="330" y="210" stroke="rgba(148, 100, 207, 1)"></use><use xlink:href="#SvgjsPath1597" x="330" y="270" stroke="rgba(148, 100, 207, 1)"></use><use xlink:href="#SvgjsPath1598" x="330" y="330" stroke="rgba(148, 100, 207, 1)"></use><use xlink:href="#SvgjsPath1596" x="330" y="390" stroke="rgba(148, 100, 207, 1)"></use><use xlink:href="#SvgjsPath1601" x="330" y="450" stroke="rgba(148, 100, 207, 1)"></use><use xlink:href="#SvgjsPath1601" x="330" y="510" stroke="rgba(148, 100, 207, 1)"></use><use xlink:href="#SvgjsPath1597" x="330" y="570" stroke="rgba(148, 100, 207, 1)"></use><use xlink:href="#SvgjsPath1598" x="330" y="630" stroke="rgba(148, 100, 207, 1)"></use><use xlink:href="#SvgjsPath1601" x="330" y="690" stroke="rgba(148, 100, 207, 1)"></use><use xlink:href="#SvgjsPath1598" x="390" y="30" stroke="rgba(148, 100, 207, 1)"></use><use xlink:href="#SvgjsPath1596" x="390" y="90" stroke="rgba(148, 100, 207, 1)"></use><use xlink:href="#SvgjsPath1596" x="390" y="150" stroke="rgba(148, 100, 207, 1)"></use><use xlink:href="#SvgjsPath1599" x="390" y="210" stroke="rgba(148, 100, 207, 1)"></use><use xlink:href="#SvgjsPath1601" x="390" y="270" stroke="rgba(148, 100, 207, 1)"></use><use xlink:href="#SvgjsPath1600" x="390" y="330" stroke="rgba(148, 100, 207, 1)" stroke-width="3"></use><use xlink:href="#SvgjsPath1596" x="390" y="390" stroke="rgba(148, 100, 207, 1)"></use><use xlink:href="#SvgjsPath1597" x="390" y="450" stroke="rgba(148, 100, 207, 1)"></use><use xlink:href="#SvgjsPath1598" x="390" y="510" stroke="rgba(148, 100, 207, 1)"></use><use xlink:href="#SvgjsPath1597" x="390" y="570" stroke="rgba(148, 100, 207, 1)"></use><use xlink:href="#SvgjsPath1601" x="390" y="630" stroke="rgba(148, 100, 207, 1)"></use><use xlink:href="#SvgjsPath1599" x="390" y="690" stroke="rgba(148, 100, 207, 1)"></use><use xlink:href="#SvgjsPath1598" x="450" y="30" stroke="rgba(148, 100, 207, 1)"></use><use xlink:href="#SvgjsPath1599" x="450" y="90" stroke="rgba(148, 100, 207, 1)"></use><use xlink:href="#SvgjsPath1596" x="450" y="150" stroke="rgba(148, 100, 207, 1)"></use><use xlink:href="#SvgjsPath1596" x="450" y="210" stroke="rgba(148, 100, 207, 1)"></use><use xlink:href="#SvgjsPath1599" x="450" y="270" stroke="rgba(148, 100, 207, 1)"></use><use xlink:href="#SvgjsPath1601" x="450" y="330" stroke="rgba(148, 100, 207, 1)"></use><use xlink:href="#SvgjsPath1598" x="450" y="390" stroke="rgba(148, 100, 207, 1)"></use><use xlink:href="#SvgjsPath1597" x="450" y="450" stroke="rgba(148, 100, 207, 1)"></use><use xlink:href="#SvgjsPath1598" x="450" y="510" stroke="rgba(148, 100, 207, 1)"></use><use xlink:href="#SvgjsPath1596" x="450" y="570" stroke="rgba(148, 100, 207, 1)"></use><use xlink:href="#SvgjsPath1596" x="450" y="630" stroke="rgba(148, 100, 207, 1)"></use><use xlink:href="#SvgjsPath1599" x="450" y="690" stroke="rgba(148, 100, 207, 1)"></use><use xlink:href="#SvgjsPath1600" x="510" y="30" stroke="rgba(148, 100, 207, 1)" stroke-width="3"></use><use xlink:href="#SvgjsPath1597" x="510" y="90" stroke="rgba(148, 100, 207, 1)"></use><use xlink:href="#SvgjsPath1597" x="510" y="150" stroke="rgba(148, 100, 207, 1)"></use><use xlink:href="#SvgjsPath1598" x="510" y="210" stroke="rgba(148, 100, 207, 1)"></use><use xlink:href="#SvgjsPath1597" x="510" y="270" stroke="rgba(148, 100, 207, 1)"></use><use xlink:href="#SvgjsPath1601" x="510" y="330" stroke="rgba(148, 100, 207, 1)"></use><use xlink:href="#SvgjsPath1601" x="510" y="390" stroke="rgba(148, 100, 207, 1)"></use><use xlink:href="#SvgjsPath1601" x="510" y="450" stroke="rgba(148, 100, 207, 1)"></use><use xlink:href="#SvgjsPath1598" x="510" y="510" stroke="rgba(148, 100, 207, 1)"></use><use xlink:href="#SvgjsPath1601" x="510" y="570" stroke="rgba(148, 100, 207, 1)"></use><use xlink:href="#SvgjsPath1598" x="510" y="630" stroke="rgba(148, 100, 207, 1)"></use><use xlink:href="#SvgjsPath1598" x="510" y="690" stroke="rgba(148, 100, 207, 1)"></use></g><defs><mask id="SvgjsMask1595"><rect width="500" height="700" fill="#ffffff"></rect></mask><path d="M-1 0 a1 1 0 1 0 2 0 a1 1 0 1 0 -2 0z" id="SvgjsPath1599"></path><path d="M-3 0 a3 3 0 1 0 6 0 a3 3 0 1 0 -6 0z" id="SvgjsPath1596"></path><path d="M-5 0 a5 5 0 1 0 10 0 a5 5 0 1 0 -10 0z" id="SvgjsPath1598"></path><path d="M2 -2 L-2 2z" id="SvgjsPath1601"></path><path d="M6 -6 L-6 6z" id="SvgjsPath1597"></path><path d="M30 -30 L-30 30z" id="SvgjsPath1600"></path></defs></svg>